HIERARCHY
ROOT Hips
{
  OFFSET 76.4002 57.6547 37.3602
  CHANNELS 6 Xposition Yposition Zposition Zrotation Xrotation Yrotation
  JOINT LeftUpLeg
  {
    OFFSET 8.02104 -5.9144 -1.45605
    CHANNELS 6 Xposition Yposition Zposition Zrotation Xrotation Yrotation
    JOINT LeftLeg
    {
      OFFSET -1.92322e-05 -41 0
      CHANNELS 6 Xposition Yposition Zposition Zrotation Xrotation Yrotation
      JOINT LeftFoot
      {
        OFFSET -1.65404e-05 -38 -2.7386
        CHANNELS 6 Xposition Yposition Zposition Zrotation Xrotation Yrotation
        JOINT LeftToeBase
        {
          OFFSET 0.224772 -4.5 8.67194
          CHANNELS 6 Xposition Yposition Zposition Zrotation Xrotation Yrotation
          End Site
          {
            OFFSET 0 0 7.5
          }
        }
      }
    }
  }
  JOINT RightUpLeg
  {
    OFFSET -8.02104 -5.9144 -1.45605
    CHANNELS 6 Xposition Yposition Zposition Zrotation Xrotation Yrotation
    JOINT RightLeg
    {
      OFFSET -1.92322e-05 -41 0
      CHANNELS 6 Xposition Yposition Zposition Zrotation Xrotation Yrotation
      JOINT RightFoot
      {
        OFFSET -1.6503e-05 -38 -2.81823
        CHANNELS 6 Xposition Yposition Zposition Zrotation Xrotation Yrotation
        JOINT RightToeBase
        {
          OFFSET -0.202579 -4.5 8.67194
          CHANNELS 6 Xposition Yposition Zposition Zrotation Xrotation Yrotation
          End Site
          {
            OFFSET 0 0 7.5
          }
        }
      }
    }
  }
  JOINT Spine
  {
    OFFSET 0 8.8 0
    CHANNELS 6 Xposition Yposition Zposition Zrotation Xrotation Yrotation
    JOINT Spine1
    {
      OFFSET 0 8.8 -1.00265
      CHANNELS 6 Xposition Yposition Zposition Zrotation Xrotation Yrotation
      JOINT Spine2
      {
        OFFSET 0 8.8 -1.42152
        CHANNELS 6 Xposition Yposition Zposition Zrotation Xrotation Yrotation
        JOINT Neck
        {
          OFFSET 0 18 -2.54888
          CHANNELS 6 Xposition Yposition Zposition Zrotation Xrotation Yrotation
          JOINT Head
          {
            OFFSET 0 9.32455 2.00943
            CHANNELS 6 Xposition Yposition Zposition Zrotation Xrotation Yrotation
            JOINT L_eye_middle
            {
              OFFSET 3.31029 5.95539 8.75316
              CHANNELS 6 Xposition Yposition Zposition Zrotation Xrotation Yrotation
              JOINT L_eye_end
              {
                OFFSET -0.00393679 0.0142683 1.5254
                CHANNELS 6 Xposition Yposition Zposition Zrotation Xrotation Yrotation
                End Site
                {
                  OFFSET 0 0 0
                }
              }
            }
            JOINT R_eye_middle
            {
              OFFSET -3.17468 5.97581 8.75332
              CHANNELS 6 Xposition Yposition Zposition Zrotation Xrotation Yrotation
              JOINT R_eye_end
              {
                OFFSET 0.00393 0.014 1.5254
                CHANNELS 6 Xposition Yposition Zposition Zrotation Xrotation Yrotation
                End Site
                {
                  OFFSET 0 0 0
                }
              }
            }
            JOINT Head_End
            {
              OFFSET -0.16006 14.4074 2.97933
              CHANNELS 6 Xposition Yposition Zposition Zrotation Xrotation Yrotation
              End Site
              {
                OFFSET 0 0 0
              }
            }
            JOINT jawTop
            {
              OFFSET -0.0268362 1.89801 2.15578
              CHANNELS 6 Xposition Yposition Zposition Zrotation Xrotation Yrotation
              JOINT jawEnd
              {
                OFFSET -0.231067 -6.43568 8.93613
                CHANNELS 6 Xposition Yposition Zposition Zrotation Xrotation Yrotation
                End Site
                {
                  OFFSET 0 0 0
                }
              }
            }
          }
        }
        JOINT LeftShoulder
        {
          OFFSET 6.25375 13.4141 -2.24536
          CHANNELS 6 Xposition Yposition Zposition Zrotation Xrotation Yrotation
          JOINT LeftArm
          {
            OFFSET 0 12 -2.47116
            CHANNELS 6 Xposition Yposition Zposition Zrotation Xrotation Yrotation
            JOINT LeftForeArm
            {
              OFFSET 0 26 1.21961e-05
              CHANNELS 6 Xposition Yposition Zposition Zrotation Xrotation Yrotation
              JOINT LeftHand
              {
                OFFSET 0 23 1.07888e-05
                CHANNELS 6 Xposition Yposition Zposition Zrotation Xrotation Yrotation
                JOINT LeftWrist_End
                {
                  OFFSET 0 10 0
                  CHANNELS 6 Xposition Yposition Zposition Zrotation Xrotation Yrotation
                  JOINT LeftHandIndex1
                  {
                    OFFSET 0.197285 1.2193 2.40532
                    CHANNELS 6 Xposition Yposition Zposition Zrotation Xrotation Yrotation
                    JOINT LeftHandIndex2
                    {
                      OFFSET 0.226043 2.66191 -0.146383
                      CHANNELS 6 Xposition Yposition Zposition Zrotation Xrotation Yrotation
                      JOINT LeftHandIndex3
                      {
                        OFFSET 0.246094 2.71596 -0.189681
                        CHANNELS 6 Xposition Yposition Zposition Zrotation Xrotation Yrotation
                        JOINT LeftHandIndex4
                        {
                          OFFSET 0.183211 2.25424 -0.102542
                          CHANNELS 6 Xposition Yposition Zposition Zrotation Xrotation Yrotation
                          End Site
                          {
                            OFFSET 0 0 0
                          }
                        }
                      }
                    }
                  }
                  JOINT LeftHandMiddle1
                  {
                    OFFSET -0.398519 1.7179 -0.0617463
                    CHANNELS 6 Xposition Yposition Zposition Zrotation Xrotation Yrotation
                    JOINT LeftHandMiddle2
                    {
                      OFFSET -0.0804033 3.32192 -0.349908
                      CHANNELS 6 Xposition Yposition Zposition Zrotation Xrotation Yrotation
                      JOINT LeftHandMiddle3
                      {
                        OFFSET 0.0957527 2.2119 -0.214092
                        CHANNELS 6 Xposition Yposition Zposition Zrotation Xrotation Yrotation
                        JOINT LeftHandMiddle4
                        {
                          OFFSET 0.131484 2.41694 -0.230538
                          CHANNELS 6 Xposition Yposition Zposition Zrotation Xrotation Yrotation
                          End Site
                          {
                            OFFSET 0 0 0
                          }
                        }
                      }
                    }
                  }
                  JOINT LeftHandRing1
                  {
                    OFFSET -0.419868 1.24945 -1.87464
                    CHANNELS 6 Xposition Yposition Zposition Zrotation Xrotation Yrotation
                    JOINT LeftHandRing2
                    {
                      OFFSET -0.213007 2.86703 -0.801583
                      CHANNELS 6 Xposition Yposition Zposition Zrotation Xrotation Yrotation
                      JOINT LeftHandRing3
                      {
                        OFFSET -0.0894973 2.05156 -0.52494
                        CHANNELS 6 Xposition Yposition Zposition Zrotation Xrotation Yrotation
                        JOINT LeftHandRing4
                        {
                          OFFSET -0.00901887 2.25558 -0.50804
                          CHANNELS 6 Xposition Yposition Zposition Zrotation Xrotation Yrotation
                          End Site
                          {
                            OFFSET 0 0 0
                          }
                        }
                      }
                    }
                  }
                  JOINT LeftHandPinky1
                  {
                    OFFSET -0.329974 0.479519 -4.13684
                    CHANNELS 6 Xposition Yposition Zposition Zrotation Xrotation Yrotation
                    JOINT LeftHandPinky2
                    {
                      OFFSET -0.160157 2.50079 -0.988666
                      CHANNELS 6 Xposition Yposition Zposition Zrotation Xrotation Yrotation
                      JOINT LeftHandPinky3
                      {
                        OFFSET -0.11602 1.97797 -0.579049
                        CHANNELS 6 Xposition Yposition Zposition Zrotation Xrotation Yrotation
                        JOINT LeftHandPinky4
                        {
                          OFFSET -0.0843264 1.42031 -0.435157
                          CHANNELS 6 Xposition Yposition Zposition Zrotation Xrotation Yrotation
                          End Site
                          {
                            OFFSET 0 0 0
                          }
                        }
                      }
                    }
                  }
                  JOINT LeftHandThumb1
                  {
                    OFFSET 3.1962 -4.98237 3.66918
                    CHANNELS 6 Xposition Yposition Zposition Zrotation Xrotation Yrotation
                    JOINT LeftHandThumb2
                    {
                      OFFSET 1.03093 2.58404 0.743119
                      CHANNELS 6 Xposition Yposition Zposition Zrotation Xrotation Yrotation
                      JOINT LeftHandThumb3
                      {
                        OFFSET 1.05913 2.62487 0.715956
                        CHANNELS 6 Xposition Yposition Zposition Zrotation Xrotation Yrotation
                        JOINT LeftHandThumb4
                        {
                          OFFSET 0.712656 2.0705 0.965941
                          CHANNELS 6 Xposition Yposition Zposition Zrotation Xrotation Yrotation
                          End Site
                          {
                            OFFSET 0 0 0
                          }
                        }
                      }
                    }
                  }
                }
              }
            }
          }
        }
        JOINT RightShoulder
        {
          OFFSET -6.25373 13.4141 -2.24536
          CHANNELS 6 Xposition Yposition Zposition Zrotation Xrotation Yrotation
          JOINT RightArm
          {
            OFFSET 0 12 -2.34387
            CHANNELS 6 Xposition Yposition Zposition Zrotation Xrotation Yrotation
            JOINT RightForeArm
            {
              OFFSET 0 26 -1.21961e-05
              CHANNELS 6 Xposition Yposition Zposition Zrotation Xrotation Yrotation
              JOINT RightHand
              {
                OFFSET 0 23 -1.07888e-05
                CHANNELS 6 Xposition Yposition Zposition Zrotation Xrotation Yrotation
                JOINT RightWrist_End
                {
                  OFFSET 0 8 0
                  CHANNELS 6 Xposition Yposition Zposition Zrotation Xrotation Yrotation
                  JOINT RightIndex1
                  {
                    OFFSET 0.334777 2.36779 1.95209
                    CHANNELS 6 Xposition Yposition Zposition Zrotation Xrotation Yrotation
                    JOINT RightIndex2
                    {
                      OFFSET -0.269286 2.80845 -0.111098
                      CHANNELS 6 Xposition Yposition Zposition Zrotation Xrotation Yrotation
                      JOINT RightIndex3
                      {
                        OFFSET -0.301989 3.12165 -0.129913
                        CHANNELS 6 Xposition Yposition Zposition Zrotation Xrotation Yrotation
                        JOINT RightIndex4
                        {
                          OFFSET -0.183845 1.90563 -0.0780892
                          CHANNELS 6 Xposition Yposition Zposition Zrotation Xrotation Yrotation
                          End Site
                          {
                            OFFSET 0 0 0
                          }
                        }
                      }
                    }
                  }
                  JOINT RightMiddle1
                  {
                    OFFSET 0.47098 2.72281 -0.481065
                    CHANNELS 6 Xposition Yposition Zposition Zrotation Xrotation Yrotation
                    JOINT RightMiddle2
                    {
                      OFFSET -0.273289 3.60235 -0.587503
                      CHANNELS 6 Xposition Yposition Zposition Zrotation Xrotation Yrotation
                      JOINT RightMiddle3
                      {
                        OFFSET -0.341001 2.3347 -0.28309
                        CHANNELS 6 Xposition Yposition Zposition Zrotation Xrotation Yrotation
                        JOINT RightMiddle4
                        {
                          OFFSET -0.346575 2.31405 -0.275466
                          CHANNELS 6 Xposition Yposition Zposition Zrotation Xrotation Yrotation
                          End Site
                          {
                            OFFSET 0 0 0
                          }
                        }
                      }
                    }
                  }
                  JOINT RightRing1
                  {
                    OFFSET -0.0625504 2.37332 -2.33089
                    CHANNELS 6 Xposition Yposition Zposition Zrotation Xrotation Yrotation
                    JOINT RightRing2
                    {
                      OFFSET -0.399735 3.0657 -0.719164
                      CHANNELS 6 Xposition Yposition Zposition Zrotation Xrotation Yrotation
                      JOINT RightRing3
                      {
                        OFFSET -0.365428 2.04692 -0.45945
                        CHANNELS 6 Xposition Yposition Zposition Zrotation Xrotation Yrotation
                        JOINT RightRing4
                        {
                          OFFSET -0.433271 2.26643 -0.502695
                          CHANNELS 6 Xposition Yposition Zposition Zrotation Xrotation Yrotation
                          End Site
                          {
                            OFFSET 0 0 0
                          }
                        }
                      }
                    }
                  }
                  JOINT RightPinky1
                  {
                    OFFSET -1.16155 1.37962 -3.95045
                    CHANNELS 6 Xposition Yposition Zposition Zrotation Xrotation Yrotation
                    JOINT RightPinky2
                    {
                      OFFSET -0.499453 2.25679 -1.05166
                      CHANNELS 6 Xposition Yposition Zposition Zrotation Xrotation Yrotation
                      JOINT RightPinky3
                      {
                        OFFSET -0.354971 1.77652 -0.736868
                        CHANNELS 6 Xposition Yposition Zposition Zrotation Xrotation Yrotation
                        JOINT RightPinky4
                        {
                          OFFSET -0.27668 1.51903 -0.566123
                          CHANNELS 6 Xposition Yposition Zposition Zrotation Xrotation Yrotation
                          End Site
                          {
                            OFFSET 0 0 0
                          }
                        }
                      }
                    }
                  }
                  JOINT RightThumb1
                  {
                    OFFSET -1.30262 -3.14946 4.2439
                    CHANNELS 6 Xposition Yposition Zposition Zrotation Xrotation Yrotation
                    JOINT RightThumb2
                    {
                      OFFSET -0.533331 2.59749 0.985526
                      CHANNELS 6 Xposition Yposition Zposition Zrotation Xrotation Yrotation
                      JOINT RightThumb3
                      {
                        OFFSET -0.666495 2.33388 1.18969
                        CHANNELS 6 Xposition Yposition Zposition Zrotation Xrotation Yrotation
                        JOINT RightThumb4
                        {
                          OFFSET -0.725011 1.80197 1.26029
                          CHANNELS 6 Xposition Yposition Zposition Zrotation Xrotation Yrotation
                          End Site
                          {
                            OFFSET 0 0 0
                          }
                        }
                      }
                    }
                  }
                }
              }
            }
          }
        }
      }
    }
  }
  JOINT bodyNormal
  {
    OFFSET -4.36515e-05 0 20
    CHANNELS 6 Xposition Yposition Zposition Zrotation Xrotation Yrotation
    End Site
    {
      OFFSET 0 0 0
    }
  }
}
MOTION
Frames: 2
Frame Time: 0.033333
77.083603 56.103500 38.239201 -34.186901 1.196230 -90.383797 8.021040 -5.914400 -1.456050 9.486900 -47.361000 6.412000 -0.000019 -41.000000 -0.000000 0.487204 77.742599 -0.444473 -0.000017 -38.000000 -2.738600 -9.934210 2.025330 13.875100 0.224772 -4.500000 8.671940 -0.000705 -1.491970 0.030172 -8.021040 -5.914400 -1.456050 -6.760080 -47.233101 -6.937110 -0.000019 -41.000000 -0.000000 0.024483 75.807899 -0.020370 -0.000017 -38.000000 -2.818230 8.788870 2.252840 -9.922910 -0.202579 -4.500000 8.671940 -0.050059 0.329553 0.011315 0.000004 8.800000 0.000000 4.089000 34.207600 5.706430 0.000005 8.800000 -1.002650 0.214585 2.661720 -1.830700 0.000005 8.800000 -1.421520 -0.593941 5.610380 -2.321460 0.000010 18.000000 -2.548880 -3.078710 -17.120701 11.131400 0.000003 9.324550 2.009430 1.184450 1.517470 -7.768140 3.310290 5.955390 8.753160 0.000000 -0.000000 0.000000 -0.003937 0.014268 1.525400 -0.000000 -0.000000 0.000000 -3.174680 5.975810 8.753320 0.000000 -0.000000 0.000000 0.003930 0.014000 1.525400 -0.000000 -0.000000 0.000000 -0.160060 14.407400 2.979330 0.000000 -0.000000 0.000000 -0.026836 1.898010 2.155780 -0.000000 -0.000000 0.000000 -0.231067 -6.435680 8.936130 0.000000 -0.000000 0.000000 6.253750 13.414100 -2.245360 -102.098999 17.233999 -8.365750 -0.000000 12.000000 -2.471160 -61.863800 10.956200 -0.450963 0.000000 26.000000 0.000012 -176.723007 43.771400 173.054993 0.000000 23.000000 0.000011 4.443710 22.064699 64.434601 -0.000000 10.000000 0.000005 -0.000000 -0.000000 -0.000000 0.197285 1.219300 2.405320 9.423640 -11.289900 4.804530 0.226043 2.661910 -0.146383 -13.634900 2.705430 -0.870662 0.246094 2.715960 -0.189681 -14.959900 2.159650 -0.584131 0.183211 2.254240 -0.102542 -0.000007 0.000001 -0.000010 -0.398519 1.717900 -0.061746 2.429620 -6.248400 1.337790 -0.080403 3.321920 -0.349908 -10.423100 1.826380 -0.922057 0.095753 2.211900 -0.214092 -13.382200 2.365200 -1.126610 0.131484 2.416940 -0.230538 0.000024 0.000005 0.000015 -0.419868 1.249450 -1.874640 -1.426480 -2.988990 5.695570 -0.213007 2.867030 -0.801583 -7.208990 1.074580 -1.741410 -0.089497 2.051560 -0.524940 -7.313560 1.236820 -1.644240 -0.009019 2.255580 -0.508040 -0.000001 0.000003 0.000000 -0.329974 0.479519 -4.136840 0.984375 1.956040 4.366810 -0.160157 2.500790 -0.988666 -8.038290 1.218730 -2.215920 -0.116020 1.977970 -0.579049 -7.330270 0.138246 -2.572160 -0.084326 1.420310 -0.435157 -0.000021 -0.000005 0.000001 3.196200 -4.982370 3.669180 15.562400 5.897960 5.573430 1.030930 2.584040 0.743119 -3.403840 -14.621500 6.567880 1.059130 2.624870 0.715956 -4.389120 -24.991600 10.788800 0.712656 2.070500 0.965941 -0.000014 -0.000012 0.000003 -6.253730 13.414100 -2.245360 104.217003 22.814100 -5.228570 -0.000000 12.000000 -2.343870 54.282902 18.915501 11.695900 0.000000 26.000000 -0.000012 172.664001 49.161800 -179.516998 -0.000000 23.000000 -0.000011 -15.729700 31.103600 -66.227699 0.000000 8.000000 -0.000004 0.000000 0.000000 -0.000000 0.334777 2.367790 1.952090 -12.597500 -5.787780 1.879120 -0.269286 2.808450 -0.111098 12.698300 1.474540 0.503889 -0.301989 3.121650 -0.129913 10.069600 1.135270 0.413395 -0.183845 1.905630 -0.078089 0.000000 0.000030 -0.000005 0.470980 2.722810 -0.481065 -10.758400 -0.270125 0.810163 -0.273289 3.602350 -0.587503 7.984290 1.035620 1.039570 -0.341001 2.334700 -0.283090 9.579490 1.476310 1.280040 -0.346575 2.314050 -0.275466 -0.000016 -0.000013 0.000015 -0.062550 2.373320 -2.330890 -13.405400 0.599205 -2.952270 -0.399735 3.065700 -0.719164 10.491300 1.409270 2.449820 -0.365428 2.046920 -0.459450 12.697400 1.726230 2.930580 -0.433271 2.266430 -0.502695 -0.000014 0.000007 -0.000008 -1.161550 1.379620 -3.950450 -2.843090 7.010120 -5.219590 -0.499453 2.256790 -1.051660 0.658637 0.056961 0.284144 -0.354971 1.776520 -0.736868 -1.161050 -1.682060 -0.682313 -0.276680 1.519030 -0.566123 -0.000000 -0.000001 -0.000005 -1.302620 -3.149460 4.243900 -11.693200 -1.628940 -0.109222 -0.533331 2.597490 0.985526 0.662564 -20.289700 -6.664800 -0.666495 2.333880 1.189690 0.459562 -20.579000 -9.223940 -0.725011 1.801970 1.260290 -0.000012 -0.000001 -0.000009 -0.000044 -0.000000 20.000000 -0.000000 -0.000000 -0.000000 
77.091599 56.072701 38.241402 -34.235600 1.190480 -90.358398 8.021040 -5.914400 -1.456050 9.494210 -47.356098 6.437690 -0.000019 -41.000000 -0.000000 0.489125 77.781502 -0.446273 -0.000017 -38.000000 -2.738600 -9.906700 2.034640 13.839900 0.224772 -4.500000 8.671940 -0.000692 -1.493830 0.030625 -8.021040 -5.914400 -1.456050 -6.782780 -47.234299 -6.962400 -0.000019 -41.000000 -0.000000 0.024139 75.865898 -0.020178 -0.000017 -38.000000 -2.818230 8.707020 2.272500 -9.934980 -0.202579 -4.500000 8.671940 -0.050096 0.333751 0.011109 0.000004 8.800000 0.000000 4.029030 34.266998 5.702770 0.000005 8.800000 -1.002650 0.224869 2.696110 -1.866530 0.000005 8.800000 -1.421520 -0.566044 5.583950 -2.354410 0.000010 18.000000 -2.548880 -3.032000 -17.149799 11.481900 0.000003 9.324550 2.009430 1.560920 2.131160 -7.602070 3.310290 5.955390 8.753160 0.000000 -0.000000 0.000000 -0.003937 0.014268 1.525400 0.000000 0.000000 -0.000000 -3.174680 5.975810 8.753320 0.000000 -0.000000 0.000000 0.003930 0.014000 1.525400 -0.000000 -0.000000 -0.000000 -0.160060 14.407400 2.979330 0.000000 -0.000000 0.000000 -0.026836 1.898010 2.155780 -0.000000 0.000000 -0.000000 -0.231067 -6.435680 8.936130 -0.000000 -0.000000 0.000000 6.253750 13.414100 -2.245360 -103.041000 16.755400 -7.836060 -0.000000 12.000000 -2.471160 -62.512798 10.731100 0.528385 0.000000 26.000000 0.000012 -176.712006 43.979000 173.037994 0.000000 23.000000 0.000011 4.716860 24.988701 65.472801 -0.000000 10.000000 0.000005 -0.000000 -0.000000 -0.000000 0.197285 1.219300 2.405320 9.676430 -11.101800 4.812380 0.226043 2.661910 -0.146383 -13.519100 2.681670 -0.866006 0.246094 2.715960 -0.189681 -14.837300 2.134280 -0.581109 0.183211 2.254240 -0.102542 -0.000007 0.000001 -0.000010 -0.398519 1.717900 -0.061746 2.490260 -6.153300 1.344780 -0.080403 3.321920 -0.349908 -10.250200 1.794770 -0.909494 0.095753 2.211900 -0.214092 -13.211200 2.333290 -1.115740 0.131484 2.416940 -0.230538 0.000024 0.000005 0.000015 -0.419868 1.249450 -1.874640 -1.395480 -3.007510 5.718430 -0.213007 2.867030 -0.801583 -7.003670 1.040920 -1.693630 -0.089497 2.051560 -0.524940 -7.053080 1.194430 -1.591180 -0.009019 2.255580 -0.508040 -0.000001 0.000003 0.000000 -0.329974 0.479519 -4.136840 1.143280 1.944900 4.389920 -0.160157 2.500790 -0.988666 -7.853580 1.187200 -2.166850 -0.116020 1.977970 -0.579049 -7.182810 0.112765 -2.528110 -0.084326 1.420310 -0.435157 -0.000021 -0.000005 0.000001 3.196200 -4.982370 3.669180 15.673700 5.862010 5.556200 1.030930 2.584040 0.743119 -3.407520 -14.642200 6.576650 1.059130 2.624870 0.715956 -4.391450 -25.013800 10.798200 0.712656 2.070500 0.965941 -0.000014 -0.000012 0.000003 -6.253730 13.414100 -2.245360 105.226997 22.643101 -5.942270 -0.000000 12.000000 -2.343870 54.276699 19.131300 11.371300 0.000000 26.000000 -0.000012 172.720993 48.907200 -179.647995 -0.000000 23.000000 -0.000011 -16.763500 37.313099 -70.485802 0.000000 8.000000 -0.000004 0.000000 0.000000 -0.000000 0.334777 2.367790 1.952090 -12.526600 -5.817420 1.881900 -0.269286 2.808450 -0.111098 12.561200 1.458080 0.500211 -0.301989 3.121650 -0.129913 9.960970 1.122380 0.409899 -0.183845 1.905630 -0.078089 0.000000 0.000030 -0.000005 0.470980 2.722810 -0.481065 -10.684500 -0.319677 0.814349 -0.273289 3.602350 -0.587503 7.979400 1.034960 1.040430 -0.341001 2.334700 -0.283090 9.575570 1.478150 1.280830 -0.346575 2.314050 -0.275466 -0.000016 -0.000013 0.000015 -0.062550 2.373320 -2.330890 -13.338100 0.606549 -2.921350 -0.399735 3.065700 -0.719164 10.476500 1.406960 2.446540 -0.365428 2.046920 -0.459450 12.682200 1.723710 2.927310 -0.433271 2.266430 -0.502695 -0.000014 0.000007 -0.000008 -1.161550 1.379620 -3.950450 -2.826410 7.017740 -5.196440 -0.499453 2.256790 -1.051660 0.673548 0.058324 0.290577 -0.354971 1.776520 -0.736868 -1.146520 -1.680640 -0.676064 -0.276680 1.519030 -0.566123 -0.000000 -0.000001 -0.000005 -1.302620 -3.149460 4.243900 -11.679100 -1.619670 -0.077396 -0.533331 2.597490 0.985526 0.662075 -20.308599 -6.671260 -0.666495 2.333880 1.189690 0.457751 -20.598400 -9.233550 -0.725011 1.801970 1.260290 -0.000012 -0.000001 -0.000009 -0.000044 0.000000 20.000000 0.000000 0.000000 -0.000000 
